<?xml version="1.0" encoding="utf-8"?>
<!-- Generator: Adobe Illustrator 19.0.0, SVG Export Plug-In . SVG Version: 6.00 Build 0)  -->
<svg version="1.1" id="Layer_1" xmlns="http://www.w3.org/2000/svg" xmlns:xlink="http://www.w3.org/1999/xlink" x="0px" y="0px"
	 viewBox="0 0 64 64" style="enable-background:new 0 0 64 64;" xml:space="preserve">
<style type="text/css">
	.st0{fill:#6D973F;}
	.st1{fill:#688F3D;}
	.st2{clip-path:url(#XMLID_24_);}
	.st3{fill:#2E404E;}
	.st4{fill:#D9A88C;}
	.st5{fill:#E9C0A7;}
	.st6{fill:#F2D8BC;}
	.st7{fill:#E7E7E7;}
	.st8{fill:#344750;}
	.st9{fill:#B9C7CF;}
	.st10{fill:#B73D41;}
	.st11{fill:#232C31;}
	.st12{fill:#FFFFFF;}
	.st13{fill:#5C3115;}
</style>
<g id="men_4">
	<g id="XMLID_91_">
		<circle id="XMLID_21_" class="st0" cx="32" cy="32" r="32"/>
		<path id="XMLID_20_" class="st1" d="M64,32C64,14.3,49.7,0,32,0v64C49.7,64,64,49.7,64,32z"/>
	</g>
	<g id="XMLID_23_">
		<defs>
			<circle id="XMLID_1_" cx="32" cy="32" r="32"/>
		</defs>
		<clipPath id="XMLID_24_">
			<use xlink:href="#XMLID_1_"  style="overflow:visible;"/>
		</clipPath>
		<g id="XMLID_25_" class="st2">
			<path id="XMLID_19_" class="st3" d="M37.9,46.2c0,0,8.9,1.3,10.2,2.7c1.1,1.2,3.5,12.6,4.1,15.1c-15.6,0-20.1,0-20.1,0V46.7
				L37.9,46.2z"/>
			<rect id="XMLID_18_" x="27.4" y="40.1" class="st4" width="9.4" height="10.3"/>
			<g id="XMLID_78_">
				<path id="XMLID_17_" class="st5" d="M32.1,10.7c4.5,0,11.7,2.6,11.7,14.7c0,7-2.3,11.6-3.3,12.9c-0.9,1.2-6.1,3.7-8.5,3.7
					C32.1,29.6,32.1,10.7,32.1,10.7z"/>
				<path id="XMLID_16_" class="st5" d="M46.1,28.3c0.2-1.9-0.7-3.7-2.1-3.8c-1.3-0.2-2.6,1.2-2.8,3.2c-0.2,1.9,0.7,3.7,2.1,3.8
					C44.6,31.6,45.9,30.2,46.1,28.3z"/>
			</g>
			<g id="XMLID_71_">
				<path id="XMLID_15_" class="st6" d="M32.1,10.7c-4.5,0-11.7,2.6-11.7,14.7c0,7,2.3,11.6,3.3,12.9c0.9,1.2,6.1,3.7,8.5,3.7
					C32.1,29.6,32.1,10.7,32.1,10.7z"/>
				<path id="XMLID_14_" class="st6" d="M18.1,28.3c-0.2-1.9,0.7-3.7,2.1-3.8c1.3-0.2,2.6,1.2,2.8,3.2c0.2,1.9-0.7,3.7-2.1,3.8
					C19.5,31.6,18.3,30.2,18.1,28.3z"/>
			</g>
			<path id="XMLID_13_" class="st7" d="M25.9,13.2c0,0-4,4.7-2.5,9.1c0.3,5.2-0.3,7-1.9,8.5c0.4-5.1-0.1-6.8-1.9-6.2
				C18.8,20.6,20.5,9.9,25.9,13.2z"/>
			<path id="XMLID_12_" class="st7" d="M38.2,13.2c0,0,4,4.7,2.5,9.1c-0.3,5.2,0.3,7,1.9,8.5c-0.4-5.1,0.1-6.8,1.9-6.2
				C45.3,20.6,43.6,9.9,38.2,13.2z"/>
			<path id="XMLID_11_" class="st8" d="M26.2,46.2c0,0-8.9,1.3-10.2,2.7c-1.1,1.2-3.5,12.6-4.1,15.1c15.6,0,20.1,0,20.1,0V46.7
				L26.2,46.2z"/>
			<polyline id="XMLID_10_" class="st9" points="38,46 32.1,46.7 26.1,46 32.1,64 			"/>
			<polygon id="XMLID_9_" class="st10" points="31.5,48.4 30.3,60.6 32.1,64 33.9,60.6 32.7,48.4 			"/>
			<path id="XMLID_8_" class="st11" d="M27.8,53.7l-4.7-7c1.3-0.5,2.7-0.8,4.1-1.1L32.1,64l-6.8-9.8L27.8,53.7z"/>
			<path id="XMLID_7_" class="st11" d="M36.3,53.7l4.7-7c-1.3-0.5-2.7-0.8-4.1-1.1L32.1,64l6.8-9.8L36.3,53.7z"/>
			<path id="XMLID_51_" class="st10" d="M33.7,48.3l-1.6,1.6l-1.6-1.6l1.6-1.6L33.7,48.3z"/>
			<polygon id="XMLID_5_" class="st12" points="32.1,46.7 27.3,44.8 26.1,46 28.5,51.2 			"/>
			<polygon id="XMLID_4_" class="st12" points="32.1,46.7 36.8,44.8 38,46 35.6,51.2 			"/>
			<polygon id="XMLID_3_" class="st13" points="32.1,34.4 32.1,35.5 28.6,36.3 27.9,36.3 			"/>
			<polygon id="XMLID_2_" class="st13" points="32.1,34.4 32.1,35.5 35.6,36.3 36.3,36.3 			"/>
		</g>
	</g>
</g>
</svg>
