<?xml version="1.0" encoding="utf-8"?>
<!-- Generator: Adobe Illustrator 19.0.0, SVG Export Plug-In . SVG Version: 6.00 Build 0)  -->
<svg version="1.1" id="Layer_1" xmlns="http://www.w3.org/2000/svg" xmlns:xlink="http://www.w3.org/1999/xlink" x="0px" y="0px"
	 viewBox="0 0 64 64" style="enable-background:new 0 0 64 64;" xml:space="preserve">
<style type="text/css">
	.st0{fill:#F5A11D;}
	.st1{fill:#ED9B21;}
	.st2{clip-path:url(#XMLID_16_);}
	.st3{fill:#D9A88C;}
	.st4{fill:#C74244;}
	.st5{fill:#E9C0A7;}
	.st6{fill:#F2D8BC;}
	.st7{fill:#FFFFFF;}
	.st8{fill:#563929;}
	.st9{fill:#0F958D;}
</style>
<g id="men_5">
	<g id="XMLID_66_">
		<circle id="XMLID_13_" class="st0" cx="32" cy="32" r="32"/>
		<path id="XMLID_12_" class="st1" d="M64,32C64,14.3,49.7,0,32,0v64C49.7,64,64,49.7,64,32z"/>
	</g>
	<g id="XMLID_15_">
		<defs>
			<circle id="XMLID_1_" cx="32" cy="32" r="32"/>
		</defs>
		<clipPath id="XMLID_16_">
			<use xlink:href="#XMLID_1_"  style="overflow:visible;"/>
		</clipPath>
		<g id="XMLID_17_" class="st2">
			<rect id="XMLID_11_" x="27.4" y="40.1" class="st3" width="9.4" height="10.3"/>
			<path id="XMLID_10_" class="st4" d="M36.7,45.5h1.6c3,0.8,6.2,1.3,8.4,3.8c1.4,1.6,3.7,14.6,3.7,14.6h-5.7H32.1V52v-2.8
				C34.6,49.2,36.7,47.6,36.7,45.5z"/>
			<path id="XMLID_9_" class="st4" d="M27.4,45.5h-1.6c-3,0.8-6.2,1.3-8.4,3.8C16,50.9,13.7,64,13.7,64h5.7h12.7V52v-2.8
				C29.5,49.2,27.4,47.6,27.4,45.5z"/>
			<g id="XMLID_50_">
				<path id="XMLID_8_" class="st5" d="M32.1,10.7c4.5,0,11.7,2.6,11.7,14.7c0,7-2.3,11.6-3.3,12.9c-0.9,1.2-6.1,3.7-8.5,3.7
					C32.1,29.6,32.1,10.7,32.1,10.7z"/>
				<path id="XMLID_7_" class="st5" d="M46.1,28.3c0.2-1.9-0.7-3.7-2.1-3.8c-1.3-0.2-2.6,1.2-2.8,3.2c-0.2,1.9,0.7,3.7,2.1,3.8
					C44.7,31.6,45.9,30.2,46.1,28.3z"/>
			</g>
			<g id="XMLID_43_">
				<path id="XMLID_6_" class="st6" d="M32.1,10.7c-4.6,0-11.7,2.6-11.7,14.7c0,7,2.3,11.6,3.3,12.9c0.9,1.2,6.1,3.7,8.5,3.7
					C32.1,29.6,32.1,10.7,32.1,10.7z"/>
				<path id="XMLID_5_" class="st6" d="M18.1,28.3c-0.2-1.9,0.7-3.7,2.1-3.8c1.3-0.2,2.6,1.2,2.8,3.2c0.2,1.9-0.7,3.7-2.1,3.8
					C19.6,31.6,18.3,30.2,18.1,28.3z"/>
			</g>
			<path id="XMLID_4_" class="st7" d="M32.1,37.3c2.1,0,3.8-0.7,3.8-1.6h-7.7C28.3,36.6,30,37.3,32.1,37.3z"/>
			<path id="XMLID_3_" class="st8" d="M41.6,26.3c0.5-1.2,1.5-2.1,2.5-1.9c0,0,0,0,0,0c0.5-1.4,0.6-3.1,0-5
				c-3.4-9.6,0.5-11.4,0.5-11.4s-3.7-0.2-6.7,2.2c2-3.1,2.9-3.9,2.9-3.9s-4.2-0.9-8.7,3.7c1-2.5,2.2-3.8,2.2-3.8s-9.4,0.1-12.8,6.9
				c-1.9,3.9-2.1,8.1-1.6,11.3c0.1,0,0.2-0.1,0.4-0.1c0.4-0.1,0.9,0.1,1.3,0.3c0-1.5,0-2.8,0-3c1.8-0.8,3.7-1.8,3.6-5.8
				c4.2,0,6.5,0,6.5,0h6.7c0,0-0.3,4.5,3.3,5.6C41.6,23.4,41.6,25.1,41.6,26.3z"/>
			<path id="XMLID_2_" class="st9" d="M32.1,50.4c3.5,0,6.3-2.2,6.3-4.8h-1.6c0,2-2.1,3.7-4.7,3.7c-2.6,0-4.7-1.6-4.7-3.7h-1.6
				C25.8,48.2,28.6,50.4,32.1,50.4z"/>
		</g>
	</g>
</g>
</svg>
