<?xml version="1.0" encoding="utf-8"?>
<!-- Generator: Adobe Illustrator 19.0.0, SVG Export Plug-In . SVG Version: 6.00 Build 0)  -->
<svg version="1.1" id="Layer_1" xmlns="http://www.w3.org/2000/svg" xmlns:xlink="http://www.w3.org/1999/xlink" x="0px" y="0px"
	 viewBox="0 0 64 64" style="enable-background:new 0 0 64 64;" xml:space="preserve">
<style type="text/css">
	.st0{fill:#837977;}
	.st1{fill:#7C7271;}
	.st2{fill:#2AA79D;}
	.st3{clip-path:url(#XMLID_22_);}
	.st4{fill:#D9A88C;}
	.st5{fill:#F2F2F2;}
	.st6{fill:#E7E7E7;}
	.st7{fill:#E9C0A7;}
	.st8{fill:#F2D8BC;}
	.st9{fill:#30353B;}
	.st10{fill:#A1B3BE;}
	.st11{fill:#FFFFFF;}
</style>
<g id="men_6">
	<g id="XMLID_79_">
		<circle id="XMLID_18_" class="st0" cx="32" cy="32" r="32"/>
		<path id="XMLID_17_" class="st1" d="M64,32C64,14.3,49.7,0,32,0v64C49.7,64,64,49.7,64,32z"/>
	</g>
	<g id="XMLID_20_">
		<circle id="XMLID_16_" class="st2" cx="32" cy="32" r="32"/>
		<g id="XMLID_21_">
			<defs>
				<circle id="XMLID_1_" cx="32" cy="32" r="32"/>
			</defs>
			<clipPath id="XMLID_22_">
				<use xlink:href="#XMLID_1_"  style="overflow:visible;"/>
			</clipPath>
			<g id="XMLID_23_" class="st3">
				<polygon id="XMLID_15_" class="st4" points="36.7,50.3 32.1,61.4 27.3,50.3 27.3,40.1 36.7,40.1 				"/>
				<path id="XMLID_14_" class="st5" d="M27.3,46.2c0,0-10,1.3-11.4,2.7c-1.1,1.2-3.5,12.6-4.1,15.1C27.5,64,32,64,32,64v-6
					L27.3,46.2z"/>
				<path id="XMLID_13_" class="st6" d="M36.7,46.2c0,0,10,1.3,11.4,2.7c1.1,1.2,3.5,12.6,4.1,15.1C36.5,64,32,64,32,64v-6
					L36.7,46.2z"/>
				<g id="XMLID_62_">
					<path id="XMLID_12_" class="st7" d="M32,10.7c4.5,0,11.7,2.6,11.7,14.7c0,7-2.3,11.6-3.3,12.9c-0.9,1.2-6.1,3.7-8.5,3.7
						C32,29.6,32,10.7,32,10.7z"/>
					<path id="XMLID_11_" class="st7" d="M46,28.3c0.2-1.9-0.7-3.7-2.1-3.8c-1.3-0.2-2.6,1.2-2.8,3.2c-0.2,1.9,0.7,3.7,2.1,3.8
						C44.6,31.6,45.8,30.2,46,28.3z"/>
				</g>
				<g id="XMLID_55_">
					<path id="XMLID_10_" class="st8" d="M32,10.7c-4.5,0-11.7,2.6-11.7,14.7c0,7,2.3,11.6,3.3,12.9c0.9,1.2,6.1,3.7,8.5,3.7
						C32,29.6,32,10.7,32,10.7z"/>
					<path id="XMLID_9_" class="st8" d="M18,28.3c-0.2-1.9,0.7-3.7,2.1-3.8c1.3-0.2,2.6,1.2,2.8,3.2c0.2,1.9-0.7,3.7-2.1,3.8
						C19.4,31.6,18.2,30.2,18,28.3z"/>
				</g>
				<path id="XMLID_8_" class="st9" d="M21.8,28.5h0.8c0,0-0.5-3.2,1-4.2c0-1.6,0-2,0-2S23,22.2,23,19.8c0-2.4,2.9-4.1,9-4.1
					c0-3.4,0-8.8,0-8.8s-12.1,0.3-12.1,9c0,3.6,0,8.5,0,8.5s0.9-0.2,1.5,0.4C22.1,25.4,21.8,28.5,21.8,28.5z"/>
				<path id="XMLID_7_" class="st9" d="M42.2,28.5h-0.8c0,0,0.5-3.2-1-4.2c0-1.6,0-2,0-2s0.6-0.1,0.6-2.5c0-2.4-2.9-4.1-9-4.1
					c0-3.4,0-8.8,0-8.8s12.1-0.3,12.1,8.5c0,3.6,0,9,0,9s-0.9-0.2-1.5,0.4C41.9,25.4,42.2,28.5,42.2,28.5z"/>
				<g id="XMLID_48_">
					<polygon id="XMLID_6_" class="st10" points="32,58 28.8,47.1 27.6,52 					"/>
					<polygon id="XMLID_5_" class="st11" points="27.2,45.1 28.9,47.2 27.6,52 25.1,48.5 					"/>
				</g>
				<g id="XMLID_25_">
					<polygon id="XMLID_4_" class="st10" points="32,58 34.9,47 36.4,52 					"/>
					<polygon id="XMLID_3_" class="st11" points="36.8,45.1 34.8,47.1 36.4,52 39.2,48.5 					"/>
				</g>
				<path id="XMLID_2_" class="st11" d="M32,36.7c2.1,0,3.8-0.7,3.8-1.6h-7.7C28.2,36,29.9,36.7,32,36.7z"/>
			</g>
		</g>
	</g>
</g>
</svg>
