<?xml version="1.0" encoding="utf-8"?>
<!-- Generator: Adobe Illustrator 19.0.0, SVG Export Plug-In . SVG Version: 6.00 Build 0)  -->
<svg version="1.1" id="Layer_1" xmlns="http://www.w3.org/2000/svg" xmlns:xlink="http://www.w3.org/1999/xlink" x="0px" y="0px"
	 viewBox="0 0 64 64" style="enable-background:new 0 0 64 64;" xml:space="preserve">
<style type="text/css">
	.st0{fill:#B6352B;}
	.st1{fill:#A32F25;}
	.st2{clip-path:url(#XMLID_7_);}
	.st3{fill:#D9A88C;}
	.st4{fill:#C0D5E0;}
	.st5{fill:#E9C0A7;}
	.st6{fill:#F2D8BC;}
	.st7{fill:#D0E1EB;}
	.st8{fill:#FFFFFF;}
	.st9{fill:#8B603D;}
</style>
<g id="men_1">
	<g id="XMLID_35_">
		<circle id="XMLID_37_" class="st0" cx="32" cy="32" r="32"/>
		<path id="XMLID_36_" class="st1" d="M64,32C64,14.3,49.7,0,32,0v64C49.7,64,64,49.7,64,32z"/>
	</g>
	<g id="XMLID_2_">
		<defs>
			<circle id="XMLID_3_" cx="32" cy="32" r="32"/>
		</defs>
		<clipPath id="XMLID_7_">
			<use xlink:href="#XMLID_3_"  style="overflow:visible;"/>
		</clipPath>
		<g id="XMLID_4_" class="st2">
			<g id="XMLID_9_">
				<rect id="XMLID_32_" x="27.3" y="40.1" class="st3" width="9.4" height="10.3"/>
				<path id="XMLID_29_" class="st4" d="M37.8,46.2c0,0,8.9,1.3,10.2,2.7c1.1,1.2,3.5,12.6,4.1,15.1C36.5,64,32,64,32,64V46.7
					L37.8,46.2z"/>
				<g id="XMLID_22_">
					<path id="XMLID_26_" class="st5" d="M32,10.7c4.6,0,11.7,2.6,11.7,14.7c0,7-2.3,11.6-3.3,12.9c-0.9,1.2-6.1,3.7-8.5,3.7
						C32,29.6,32,10.7,32,10.7z"/>
					<path id="XMLID_23_" class="st5" d="M46,28.3c0.2-1.9-0.7-3.7-2.1-3.8c-1.3-0.2-2.6,1.2-2.8,3.2c-0.2,1.9,0.7,3.7,2.1,3.8
						C44.6,31.6,45.8,30.2,46,28.3z"/>
				</g>
				<g id="XMLID_15_">
					<path id="XMLID_19_" class="st6" d="M32,10.7c-4.6,0-11.7,2.6-11.7,14.7c0,7,2.3,11.6,3.3,12.9c0.9,1.2,6.1,3.7,8.5,3.7
						C32,29.6,32,10.7,32,10.7z"/>
					<path id="XMLID_16_" class="st6" d="M18,28.3c-0.2-1.9,0.7-3.7,2.1-3.8c1.3-0.2,2.6,1.2,2.8,3.2c0.2,1.9-0.7,3.7-2.1,3.8
						C19.4,31.6,18.2,30.2,18,28.3z"/>
				</g>
				<path id="XMLID_12_" class="st7" d="M26.2,46.2c0,0-8.9,1.3-10.2,2.7c-1.1,1.2-3.5,12.6-4.1,15.1C27.5,64,32,64,32,64V46.7
					L26.2,46.2z"/>
				<polygon id="XMLID_11_" class="st8" points="32,46.7 27.2,44.8 26.1,46 28.4,51.2 				"/>
				<polygon id="XMLID_10_" class="st8" points="32,46.7 36.8,44.8 37.9,46 35.6,51.2 				"/>
			</g>
			<path id="XMLID_6_" class="st9" d="M44,24.7c0,0,3.9-17.6-12.1-17.6c-16,0-12,17.1-12,17.1s2.2-1.3,2.2,4.3c0.9,0,0.4,0,0.4,0
				s0.8-3.8,1-7.1c5.6,0,10.6-0.7,14.8-4.2c2.4,0,2.7,3,2.7,5.2l-1,0.4c0,0,1,2,1.1,5.7c0.7,0,0.7,0,0.7,0S41.7,22.4,44,24.7z"/>
			<path id="XMLID_5_" class="st8" d="M32,37.3c2.1,0,3.8-0.7,3.8-1.6h-7.7C28.2,36.6,29.9,37.3,32,37.3z"/>
		</g>
	</g>
</g>
</svg>
