<?xml version="1.0" encoding="utf-8"?>
<!-- Generator: Adobe Illustrator 19.0.0, SVG Export Plug-In . SVG Version: 6.00 Build 0)  -->
<svg version="1.1" id="Layer_1" xmlns="http://www.w3.org/2000/svg" xmlns:xlink="http://www.w3.org/1999/xlink" x="0px" y="0px"
	 viewBox="0 0 64 64" style="enable-background:new 0 0 64 64;" xml:space="preserve">
<style type="text/css">
	.st0{fill:#F5A11D;}
	.st1{fill:#ED9B21;}
	.st2{clip-path:url(#XMLID_21_);}
	.st3{fill:#D9A88C;}
	.st4{fill:#C0D0D8;}
	.st5{fill:#A7BDC8;}
	.st6{fill:#11A99A;}
	.st7{fill:#E9C0A7;}
	.st8{fill:#F2D8BC;}
	.st9{fill:#FFFFFF;}
	.st10{fill:#7F97A3;}
	.st11{fill:#8B603D;}
</style>
<g id="men_2">
	<g id="XMLID_91_">
		<circle id="XMLID_23_" class="st0" cx="32" cy="32" r="32"/>
		<path id="XMLID_19_" class="st1" d="M64,32C64,14.3,49.7,0,32,0v64C49.7,64,64,49.7,64,32z"/>
	</g>
	<g id="XMLID_20_">
		<defs>
			<circle id="XMLID_1_" cx="32" cy="32" r="32"/>
		</defs>
		<clipPath id="XMLID_21_">
			<use xlink:href="#XMLID_1_"  style="overflow:visible;"/>
		</clipPath>
		<g id="XMLID_22_" class="st2">
			<rect id="XMLID_18_" x="27.3" y="40.1" class="st3" width="9.4" height="10.3"/>
			<path id="XMLID_17_" class="st4" d="M26.2,46.2c0,0-8.9,1.3-10.2,2.7c-1.1,1.2-3.5,12.6-4.1,15.1C27.5,64,32,64,32,64V46.7
				L26.2,46.2z"/>
			<path id="XMLID_15_" class="st5" d="M37.8,46.2c0,0,8.9,1.3,10.2,2.7c1.1,1.2,3.5,12.6,4.1,15.1C36.5,64,32,64,32,64V46.7
				L37.8,46.2z"/>
			<polygon id="XMLID_14_" class="st6" points="31.4,48.4 30.2,60.6 32,64 33.8,60.6 32.6,48.4 			"/>
			<path id="XMLID_73_" class="st6" d="M33.6,48.3L32,49.9l-1.6-1.6l1.6-1.6L33.6,48.3z"/>
			<g id="XMLID_66_">
				<path id="XMLID_12_" class="st7" d="M32,10.7c4.6,0,11.7,2.6,11.7,14.7c0,7-2.3,11.6-3.3,12.9c-0.9,1.2-6.1,3.7-8.5,3.7
					C32,29.6,32,10.7,32,10.7z"/>
				<path id="XMLID_11_" class="st7" d="M46,28.3c0.2-1.9-0.7-3.7-2.1-3.8c-1.3-0.2-2.6,1.2-2.8,3.2c-0.2,1.9,0.7,3.7,2.1,3.8
					C44.6,31.6,45.8,30.2,46,28.3z"/>
			</g>
			<g id="XMLID_59_">
				<path id="XMLID_10_" class="st8" d="M32,10.7c-4.6,0-11.7,2.6-11.7,14.7c0,7,2.3,11.6,3.3,12.9c0.9,1.2,6.1,3.7,8.5,3.7
					C32,29.6,32,10.7,32,10.7z"/>
				<path id="XMLID_9_" class="st8" d="M18,28.3c-0.2-1.9,0.7-3.7,2.1-3.8c1.3-0.2,2.6,1.2,2.8,3.2c0.2,1.9-0.7,3.7-2.1,3.8
					C19.4,31.6,18.2,30.2,18,28.3z"/>
			</g>
			<polygon id="XMLID_8_" class="st9" points="32,46.7 27.2,44.8 26.1,46 28.4,51.2 			"/>
			<polygon id="XMLID_7_" class="st9" points="32,46.7 36.8,44.8 37.9,46 35.6,51.2 			"/>
			<rect id="XMLID_6_" x="21.7" y="58.8" class="st10" width="5.9" height="1.3"/>
			<rect id="XMLID_5_" x="36.4" y="58.8" class="st10" width="5.9" height="1.3"/>
			<path id="XMLID_4_" class="st11" d="M21.8,28.5h0.8c0,0-0.5-3.2,1-4.2c0-1.6,0-2,0-2S23,22.2,23,19.8c0-2.4,2.9-4.1,9-4.1
				c0-3.4,0-7.4,0-7.4S19.9,9.6,19.9,18.4c0,3.6,0,6,0,6s0.9-0.2,1.5,0.4C22.1,25.4,21.8,28.5,21.8,28.5z"/>
			<path id="XMLID_3_" class="st11" d="M42.1,28.5h-0.8c0,0,0.5-3.2-1-4.2c0-1.6,0-2,0-2s0.6-0.1,0.6-2.5c0-2.4-2.9-4.1-9-4.1
				c0-3.4,0-7.4,0-7.4S44,9.6,44,18.4c0,3.6,0,6,0,6s-0.9-0.2-1.5,0.4C41.8,25.4,42.1,28.5,42.1,28.5z"/>
			<path id="XMLID_2_" class="st9" d="M32,36.7c2.1,0,3.8-0.7,3.8-1.6h-7.7C28.2,36,29.9,36.7,32,36.7z"/>
		</g>
	</g>
</g>
</svg>
