<?xml version="1.0" encoding="utf-8"?>
<!-- Generator: Adobe Illustrator 19.0.0, SVG Export Plug-In . SVG Version: 6.00 Build 0)  -->
<svg version="1.1" id="Layer_1" xmlns="http://www.w3.org/2000/svg" xmlns:xlink="http://www.w3.org/1999/xlink" x="0px" y="0px"
	 viewBox="0 0 64 64" style="enable-background:new 0 0 64 64;" xml:space="preserve">
<style type="text/css">
	.st0{fill:#837977;}
	.st1{fill:#7C7271;}
	.st2{clip-path:url(#XMLID_21_);}
	.st3{fill:#2B2E35;}
	.st4{fill:#D9A88C;}
	.st5{fill:#E9C0A7;}
	.st6{fill:#F2D8BC;}
	.st7{fill:#670E0E;}
	.st8{fill:#30353B;}
	.st9{fill:#B9C7CF;}
	.st10{fill:#129E95;}
	.st11{fill:#3B414D;}
	.st12{fill:#FFFFFF;}
</style>
<g id="men_3">
	<g id="XMLID_118_">
		<circle id="XMLID_26_" class="st0" cx="32" cy="32" r="32"/>
		<path id="XMLID_25_" class="st1" d="M64,32C64,14.3,49.7,0,32,0v64C49.7,64,64,49.7,64,32z"/>
	</g>
	<g id="XMLID_20_">
		<defs>
			<circle id="XMLID_1_" cx="32" cy="32" r="32"/>
		</defs>
		<clipPath id="XMLID_21_">
			<use xlink:href="#XMLID_1_"  style="overflow:visible;"/>
		</clipPath>
		<g id="XMLID_22_" class="st2">
			<g id="XMLID_68_">
				<path id="XMLID_24_" class="st3" d="M37.8,46.2c0,0,8.9,1.3,10.2,2.7c1.1,1.2,3.5,12.6,4.1,15.1C36.5,64,32,64,32,64V47.8
					L37.8,46.2z"/>
				<rect id="XMLID_23_" x="27.3" y="40.3" class="st4" width="9.4" height="10.3"/>
				<g id="XMLID_105_">
					<path id="XMLID_19_" class="st5" d="M32,10.7c4.5,0,11.7,2.6,11.7,14.7c0,7-2.3,11.6-3.3,12.9c-0.9,1.2-6.1,3.7-8.5,3.7
						C32,29.6,32,10.7,32,10.7z"/>
					<path id="XMLID_18_" class="st5" d="M46,28.3c0.2-1.9-0.7-3.7-2.1-3.8c-1.3-0.2-2.6,1.2-2.8,3.2c-0.2,1.9,0.7,3.7,2.1,3.8
						C44.6,31.6,45.8,30.2,46,28.3z"/>
				</g>
				<g id="XMLID_98_">
					<path id="XMLID_17_" class="st6" d="M32,10.7c-4.5,0-11.7,2.6-11.7,14.7c0,7,2.3,11.6,3.3,12.9c0.9,1.2,6.1,3.7,8.5,3.7
						C32,29.6,32,10.7,32,10.7z"/>
					<path id="XMLID_15_" class="st6" d="M18,28.3c-0.2-1.9,0.7-3.7,2.1-3.8c1.3-0.2,2.6,1.2,2.8,3.2c0.2,1.9-0.7,3.7-2.1,3.8
						C19.4,31.6,18.2,30.2,18,28.3z"/>
				</g>
				<path id="XMLID_14_" class="st7" d="M25.9,13.2c0,0-4,4.7-2.5,9.1c0.3,5.2-0.3,7-1.9,8.5c0.4-5.1-0.1-6.8-1.9-6.2
					C18.8,20.6,20.4,9.9,25.9,13.2z"/>
				<path id="XMLID_13_" class="st7" d="M38.1,13.2c0,0,4,4.7,2.5,9.1c-0.3,5.2,0.3,7,1.9,8.5c-0.4-5.1,0.1-6.8,1.9-6.2
					C45.2,20.6,43.6,9.9,38.1,13.2z"/>
				<path id="XMLID_12_" class="st8" d="M26.2,46.2c0,0-8.9,1.3-10.2,2.7c-1.1,1.2-3.5,12.6-4.1,15.1C27.5,64,32,64,32,64V47.8
					L26.2,46.2z"/>
				<polyline id="XMLID_11_" class="st9" points="37.9,46 32,47.2 26.1,46 32,64 				"/>
				<polygon id="XMLID_10_" class="st10" points="31.5,49.6 30.5,61.8 32,64 33.5,61.8 32.5,49.6 				"/>
				<path id="XMLID_9_" class="st11" d="M27.7,53.7l-4.7-7c1.3-0.5,2.7-0.8,4.1-1.1L32,64l-6.8-9.8L27.7,53.7z"/>
				<path id="XMLID_8_" class="st11" d="M36.3,53.7l4.7-7c-1.3-0.5-2.7-0.8-4.1-1.1L32,64l6.8-9.8L36.3,53.7z"/>
				<path id="XMLID_71_" class="st10" d="M33.6,48.8L32,50.5l-1.6-1.6l1.6-1.6L33.6,48.8z"/>
				<polygon id="XMLID_6_" class="st12" points="32,47.2 36.8,44.8 39.2,46.2 34.1,50.3 				"/>
				<polygon id="XMLID_5_" class="st12" points="32,47.2 27.2,44.8 24.8,46.2 29.8,50.3 				"/>
			</g>
			<path id="XMLID_4_" class="st7" d="M43.2,15.3C41.4,7.6,30,1.5,21.9,13.6c-0.5,2.4,1.7,3.5,1.7,3.5s1.5-3.5,8.4-1.9
				c3.4-0.7,6.7-1.3,8.3,1.9C41.8,20.2,43.2,15.3,43.2,15.3z"/>
			<path id="XMLID_3_" class="st7" d="M38.7,36.7c-2.4,0-4-1.9-6.7-1.9c-2.7,0-4.4,1.9-6.7,1.9c-2.6,0-4.2-4.4-4.7-6
				c0.7,4.5,2.2,7.4,3,8.4c0.9,1.2,6.1,3.7,8.5,3.7h0l0,0c2.4,0,7.6-2.5,8.5-3.7c0.8-1,2.3-3.9,3-8.4C42.9,32.2,41.3,36.7,38.7,36.7
				z"/>
			<path id="XMLID_2_" class="st12" d="M32,38.8c0.8,0,1.4-0.3,1.4-0.7h-2.9C30.6,38.5,31.2,38.8,32,38.8z"/>
		</g>
	</g>
</g>
</svg>
