<?xml version="1.0" encoding="utf-8"?>
<!-- Generator: Adobe Illustrator 19.0.0, SVG Export Plug-In . SVG Version: 6.00 Build 0)  -->
<svg version="1.1" id="Layer_1" xmlns="http://www.w3.org/2000/svg" xmlns:xlink="http://www.w3.org/1999/xlink" x="0px" y="0px"
	 viewBox="0 0 64 64" style="enable-background:new 0 0 64 64;" xml:space="preserve">
<style type="text/css">
	.st0{fill:#6D973F;}
	.st1{fill:#688F3D;}
	.st2{clip-path:url(#XMLID_8_);}
	.st3{fill:#451A14;}
	.st4{fill:#EAC8AE;}
	.st5{fill:#F2D8BC;}
	.st6{fill:#E9C0A7;}
	.st7{fill:#FFFFFF;}
	.st8{fill:#75B6E4;}
	.st9{fill:#5FABDC;}
</style>
<g id="women_2">
	<g id="XMLID_49_">
		<circle id="XMLID_51_" class="st0" cx="32" cy="32" r="32"/>
		<path id="XMLID_50_" class="st1" d="M64,32C64,14.3,49.7,0,32,0v64C49.7,64,64,49.7,64,32z"/>
	</g>
	<g id="XMLID_2_">
		<defs>
			<circle id="XMLID_3_" cx="32" cy="32" r="32"/>
		</defs>
		<clipPath id="XMLID_8_">
			<use xlink:href="#XMLID_3_"  style="overflow:visible;"/>
		</clipPath>
		<g id="XMLID_4_" class="st2">
			<path id="XMLID_48_" class="st3" d="M45.7,33c0,7.6-6.1,3.6-13.7,3.6l0,0c-7.6,0-13.7,3.9-13.7-3.6V20.6
				c0-7.6,6.1-13.7,13.7-13.7l0,0c7.6,0,13.7,6.1,13.7,13.7V33z"/>
			<g id="XMLID_13_">
				<g id="XMLID_16_">
					<circle id="XMLID_47_" class="st3" cx="32.1" cy="20.8" r="14"/>
					<polygon id="XMLID_44_" class="st4" points="36.7,50.7 32,64.1 27.4,50.7 27.4,40.5 36.7,40.5 					"/>
					<g id="XMLID_37_">
						<path id="XMLID_41_" class="st5" d="M32.1,12c-4.6,0-11.7,2.6-11.7,14.7c0,7,2.7,10.3,3.7,11.6c0.9,1.2,5.6,4.9,8,4.9
							C32.1,31,32.1,12,32.1,12z"/>
						<path id="XMLID_38_" class="st5" d="M18.1,29.6c-0.2-1.9,0.7-3.7,2.1-3.8c1.3-0.2,2.6,1.2,2.8,3.2c0.2,1.9-0.7,3.7-2.1,3.8
							C19.5,32.9,18.3,31.5,18.1,29.6z"/>
					</g>
					<g id="XMLID_24_">
						<g id="XMLID_83_">
							<g id="XMLID_86_">
								<path id="XMLID_87_" class="st6" d="M32,12c4.5,0,11.7,2.6,11.7,14.7c0,7-2.7,10.3-3.7,11.6c-0.9,1.2-5.6,4.9-8,4.9
									C32,31,32,12,32,12z"/>
							</g>
							<g id="XMLID_84_">
								<path id="XMLID_85_" class="st6" d="M46.1,29.6c0.2-1.9-0.7-3.7-2.1-3.8c-1.3-0.2-2.6,1.2-2.8,3.2c-0.2,1.9,0.7,3.7,2.1,3.8
									C44.6,32.9,45.9,31.5,46.1,29.6z"/>
							</g>
						</g>
					</g>
					<path id="XMLID_21_" class="st4" d="M32,64.1V51.3c0,0-3.5-0.9-4.3-3.7c-0.4-1.4-0.4-2.5-0.4-2.5s-7.6,2.6-9.4,5.2
						c-1.4,4.2-1.8,13.7-1.8,13.7H32z"/>
					<path id="XMLID_18_" class="st4" d="M32,64.1V51.3c0,0,3.5-0.9,4.3-3.7c0.4-1.4,0.4-2.5,0.4-2.5s7.6,2.6,9.4,5.2
						c1.4,4.2,1.8,13.7,1.8,13.7H32z"/>
					<path id="XMLID_17_" class="st7" d="M32.1,38.9c1.8,0,3.2-1.1,3.2-2.4h-6.4C28.8,37.8,30.3,38.9,32.1,38.9z"/>
				</g>
				<path id="XMLID_15_" class="st3" d="M31.4,8.5c-8.3,0-10.8,7.3-10.8,10.6c-3,4.2,0.3,7.9,2.6,9.3c0-0.8,0-1.1,0-2.1
					c0-2.7,2.6-5.2,6.4-4.8c3.5,0.4,5.7-1.6,7.5-4.9C39.4,12.2,36.5,8.5,31.4,8.5z"/>
				<path id="XMLID_14_" class="st3" d="M36.7,15.2c0,0,1.9,7.9,7.3,10.5c0.9-7.1,1.5-5.6,0-9.3c-1.5-3.7-7.3-6.5-7.3-6.5V15.2z"/>
			</g>
			<path id="XMLID_10_" class="st8" d="M32,64.1V53.3l-4.6-8.2c0,0-7.6,2.6-9.4,5.2c-1.4,4.2-1.8,13.7-1.8,13.7H32z"/>
			<path id="XMLID_7_" class="st9" d="M32,64.1V53.3l4.6-8.2c0,0,7.6,2.6,9.4,5.2c1.4,4.2,1.8,13.7,1.8,13.7H32z"/>
			<polygon id="XMLID_6_" class="st7" points="32,53.3 27.4,45.1 23.1,46.5 26.7,54.6 			"/>
			<polygon id="XMLID_5_" class="st7" points="32,53.3 36.6,45.1 40.9,46.5 37.3,54.6 			"/>
		</g>
	</g>
</g>
</svg>
