<?xml version="1.0" encoding="utf-8"?>
<!-- Generator: Adobe Illustrator 19.0.0, SVG Export Plug-In . SVG Version: 6.00 Build 0)  -->
<svg version="1.1" id="Layer_1" xmlns="http://www.w3.org/2000/svg" xmlns:xlink="http://www.w3.org/1999/xlink" x="0px" y="0px"
	 viewBox="0 0 64 64" style="enable-background:new 0 0 64 64;" xml:space="preserve">
<style type="text/css">
	.st0{fill:#5B4A81;}
	.st1{fill:#544479;}
	.st2{clip-path:url(#XMLID_9_);}
	.st3{fill:#451A14;}
	.st4{fill:#EAC8AE;}
	.st5{fill:#F2D8BC;}
	.st6{fill:#E9C0A7;}
	.st7{fill:#FFFFFF;}
	.st8{fill:#EA1F3C;}
	.st9{fill:#C5202F;}
</style>
<g id="women_3">
	<g id="XMLID_47_">
		<circle id="XMLID_49_" class="st0" cx="32" cy="32" r="32"/>
		<path id="XMLID_48_" class="st1" d="M64,32C64,14.3,49.7,0,32,0v64C49.7,64,64,49.7,64,32z"/>
	</g>
	<g id="XMLID_2_">
		<defs>
			<circle id="XMLID_3_" cx="32" cy="32" r="32"/>
		</defs>
		<clipPath id="XMLID_9_">
			<use xlink:href="#XMLID_3_"  style="overflow:visible;"/>
		</clipPath>
		<g id="XMLID_4_" class="st2">
			<path id="XMLID_46_" class="st3" d="M19.7,26.3c0,5.4-2.9,5.5-2.7,9c0.2,3.9,3.3,3.9,3.3,6.6c0,2.7-2.8,5.7-0.3,8.6
				c11,0,12.1,0,12.1,0V17.8L19.7,26.3z"/>
			<path id="XMLID_45_" class="st3" d="M44.3,26.3c0,5.4,2.9,5.5,2.7,9c-0.2,3.9-3.3,3.9-3.3,6.6c0,2.7,2.8,5.7,0.3,8.6
				c-11,0-12.1,0-12.1,0V17.8L44.3,26.3z"/>
			<g id="XMLID_7_">
				<circle id="XMLID_44_" class="st3" cx="32.1" cy="20.8" r="14"/>
				<polygon id="XMLID_41_" class="st4" points="36.8,50.7 32,64.1 27.4,50.7 27.4,40.5 36.8,40.5 				"/>
				<g id="XMLID_34_">
					<path id="XMLID_38_" class="st5" d="M32.1,12c-4.5,0-11.7,2.6-11.7,14.7c0,7,2.7,10.3,3.7,11.6c0.9,1.2,5.6,4.9,8,4.9
						C32.1,31,32.1,12,32.1,12z"/>
					<path id="XMLID_35_" class="st5" d="M18.1,29.6c-0.2-1.9,0.7-3.7,2.1-3.8c1.3-0.2,2.6,1.2,2.8,3.2c0.2,1.9-0.7,3.7-2.1,3.8
						C19.5,32.9,18.3,31.5,18.1,29.6z"/>
				</g>
				<g id="XMLID_21_">
					<g id="XMLID_81_">
						<g id="XMLID_84_">
							<path id="XMLID_85_" class="st6" d="M32,12c4.5,0,11.7,2.6,11.7,14.7c0,7-2.7,10.3-3.7,11.6c-0.9,1.2-5.6,4.9-8,4.9
								C32,31,32,12,32,12z"/>
						</g>
						<g id="XMLID_82_">
							<path id="XMLID_83_" class="st6" d="M46.1,29.6c0.2-1.9-0.7-3.7-2.1-3.8c-1.3-0.2-2.6,1.2-2.8,3.2c-0.2,1.9,0.7,3.7,2.1,3.8
								C44.6,32.9,45.9,31.5,46.1,29.6z"/>
						</g>
					</g>
				</g>
				<path id="XMLID_18_" class="st4" d="M32,64.1V51.3c0,0-3.5-0.9-4.3-3.7c-0.4-1.4-0.4-2.5-0.4-2.5s-7.6,2.6-9.4,5.2
					c-1.4,4.2-1.8,13.7-1.8,13.7H32z"/>
				<path id="XMLID_15_" class="st4" d="M32,64.1V51.3c0,0,3.5-0.9,4.3-3.7c0.4-1.4,0.4-2.5,0.4-2.5s7.6,2.6,9.4,5.2
					c1.4,4.2,1.8,13.7,1.8,13.7H32z"/>
				<path id="XMLID_14_" class="st7" d="M32.1,38.9c1.8,0,3.2-1.1,3.2-2.4h-6.4C28.9,37.8,30.3,38.9,32.1,38.9z"/>
				<path id="XMLID_11_" class="st8" d="M32,59.1c0,0-3.4-8.4-4.6-13.9c-1.3,0.5-2.3,0.8-3.1,1.2c-3.8,8-3.9,17.7-3.9,17.7H32V59.1z
					"/>
				<path id="XMLID_8_" class="st9" d="M32.1,59.1c0,0,3.4-8.4,4.6-13.9c1.3,0.5,2.3,0.8,3.1,1.2c3.8,8,3.9,17.7,3.9,17.7H32.1V59.1
					z"/>
			</g>
			<path id="XMLID_6_" class="st3" d="M31.4,8.5c-8.3,0-10.8,7.3-10.8,10.6c-3,4.2,0.3,7.9,2.6,9.3c0-0.8,0-1.1,0-2.1
				c0-2.7,2.6-5.2,6.4-4.8c3.5,0.4,5.7-1.6,7.5-4.9C39.4,12.2,36.5,8.5,31.4,8.5z"/>
			<path id="XMLID_5_" class="st3" d="M36.8,15.2c0,0,1.9,7.9,7.3,10.5c0.9-7.1,1.5-5.6,0-9.3c-1.5-3.7-7.3-6.5-7.3-6.5V15.2z"/>
		</g>
	</g>
</g>
</svg>
