<?xml version="1.0" encoding="utf-8"?>
<!-- Generator: Adobe Illustrator 19.0.0, SVG Export Plug-In . SVG Version: 6.00 Build 0)  -->
<svg version="1.1" id="Layer_1" xmlns="http://www.w3.org/2000/svg" xmlns:xlink="http://www.w3.org/1999/xlink" x="0px" y="0px"
	 viewBox="0 0 64 64" style="enable-background:new 0 0 64 64;" xml:space="preserve">
<style type="text/css">
	.st0{fill:#2AA79D;}
	.st1{fill:#28A097;}
	.st2{clip-path:url(#XMLID_5_);}
	.st3{fill:#492C1C;}
	.st4{fill:#EAC8AE;}
	.st5{fill:#F2D8BC;}
	.st6{fill:#E9C0A7;}
	.st7{fill:#FFFFFF;}
	.st8{fill:#FAA31F;}
	.st9{fill:#F78F21;}
	.st10{fill:#3DB54A;}
</style>
<g id="women_1_1_">
	<g id="XMLID_61_">
		<circle id="XMLID_63_" class="st0" cx="32" cy="32" r="32"/>
		<path id="XMLID_62_" class="st1" d="M64,32C64,14.3,49.7,0,32,0v64C49.7,64,64,49.7,64,32z"/>
	</g>
	<g id="women_1">
		<defs>
			<circle id="XMLID_2_" cx="32" cy="32" r="32"/>
		</defs>
		<clipPath id="XMLID_5_">
			<use xlink:href="#XMLID_2_"  style="overflow:visible;"/>
		</clipPath>
		<g id="XMLID_3_" class="st2">
			<g id="XMLID_12_">
				<g id="XMLID_13_">
					<g id="XMLID_14_">
						<g id="XMLID_21_">
							<circle id="XMLID_58_" class="st3" cx="32" cy="20.8" r="14"/>
							<polygon id="XMLID_55_" class="st4" points="36.7,50.7 31.9,64.1 27.3,50.7 27.3,40.5 36.7,40.5 							"/>
							<g id="XMLID_48_">
								<path id="XMLID_52_" class="st5" d="M32,12c-4.5,0-11.7,2.6-11.7,14.7c0,7,2.7,10.3,3.7,11.6c0.9,1.2,5.6,4.9,8,4.9
									C32,31,32,12,32,12z"/>
								<path id="XMLID_49_" class="st5" d="M18,29.6c-0.2-1.9,0.7-3.7,2.1-3.8c1.3-0.2,2.6,1.2,2.8,3.2c0.2,1.9-0.7,3.7-2.1,3.8
									C19.4,32.9,18.2,31.5,18,29.6z"/>
							</g>
							<g id="XMLID_35_">
								<g id="XMLID_95_">
									<g id="XMLID_98_">
										<path id="XMLID_99_" class="st6" d="M32,12c4.5,0,11.7,2.6,11.7,14.7c0,7-2.7,10.3-3.7,11.6c-0.9,1.2-5.6,4.9-8,4.9
											C32,31,32,12,32,12z"/>
									</g>
									<g id="XMLID_96_">
										<path id="XMLID_97_" class="st6" d="M46,29.6c0.2-1.9-0.7-3.7-2.1-3.8c-1.3-0.2-2.6,1.2-2.8,3.2c-0.2,1.9,0.7,3.7,2.1,3.8
											C44.6,32.9,45.8,31.5,46,29.6z"/>
									</g>
								</g>
							</g>
							<path id="XMLID_32_" class="st4" d="M31.9,64.1V51.3c0,0-3.5-0.9-4.3-3.7c-0.4-1.4-0.4-2.5-0.4-2.5s-7.6,2.6-9.4,5.2
								c-1.4,4.2-1.8,13.7-1.8,13.7H31.9z"/>
							<path id="XMLID_29_" class="st4" d="M31.9,64.1V51.3c0,0,3.5-0.9,4.3-3.7c0.4-1.4,0.4-2.5,0.4-2.5s7.6,2.6,9.4,5.2
								c1.4,4.2,1.8,13.7,1.8,13.7H31.9z"/>
							<path id="XMLID_26_" class="st4" d="M31.9,64.1V51.3c0,0-3.5-0.9-4.3-3.7c-0.4-1.4-0.4-2.5-0.4-2.5s-7.6,2.6-9.4,5.2
								c-1.4,4.2-1.8,13.7-1.8,13.7H31.9z"/>
							<path id="XMLID_23_" class="st4" d="M31.9,64.1V51.3c0,0,3.5-0.9,4.3-3.7c0.4-1.4,0.4-2.5,0.4-2.5s7.6,2.6,9.4,5.2
								c1.4,4.2,1.8,13.7,1.8,13.7H31.9z"/>
							<path id="XMLID_22_" class="st7" d="M32,38.9c1.8,0,3.2-1.1,3.2-2.4h-6.4C28.8,37.8,30.2,38.9,32,38.9z"/>
						</g>
						<path id="XMLID_18_" class="st3" d="M31.3,8.5c-8.3,0-10.8,7.3-10.8,10.6c-3,4.2,0.3,7.9,2.6,9.3c0-0.8,0-1.1,0-2.1
							c0-2.7,2.6-5.2,6.4-4.8c3.5,0.4,5.7-1.6,7.5-4.9C39.3,12.2,36.5,8.5,31.3,8.5z"/>
						<path id="XMLID_15_" class="st3" d="M36.7,15.2c0,0,1.9,7.9,7.3,10.5c0.9-7.1,1.5-5.6,0-9.3s-7.3-6.5-7.3-6.5V15.2z"/>
					</g>
				</g>
			</g>
			<path id="XMLID_9_" class="st8" d="M45.9,50.4c-1.4-2.2-7-4.4-8.8-5c-0.1,2.8-2.4,5-5.2,5c-2.8,0-5.1-2.2-5.2-5
				c-1.8,0.7-7.4,2.8-8.8,5c-1.4,4.2-1.8,13.7-1.8,13.7h15.8h15.8C47.7,64.1,47.3,54.6,45.9,50.4z"/>
			<path id="XMLID_8_" class="st9" d="M47.7,64.1c0,0-0.4-9.5-1.8-13.7c-1.4-2.2-7-4.4-8.8-5c-0.1,2.8-2.4,5-5.2,5v13.7H47.7z"/>
			<path id="XMLID_7_" class="st10" d="M25,46c0.5,3.4,3.4,5.9,6.9,5.9c3.5,0,6.4-2.6,6.9-5.9c-0.7-0.3-1.3-0.5-1.7-0.7
				c-0.1,2.8-2.4,5-5.2,5c-2.8,0-5.1-2.2-5.2-5C26.3,45.5,25.7,45.7,25,46z"/>
			<circle id="XMLID_4_" class="st3" cx="32" cy="6.7" r="4.7"/>
		</g>
	</g>
</g>
</svg>
