<?xml version="1.0" encoding="utf-8"?>
<!-- Generator: Adobe Illustrator 19.0.0, SVG Export Plug-In . SVG Version: 6.00 Build 0)  -->
<svg version="1.1" id="Layer_1" xmlns="http://www.w3.org/2000/svg" xmlns:xlink="http://www.w3.org/1999/xlink" x="0px" y="0px"
	 viewBox="0 0 128 128" style="enable-background:new 0 0 128 128;" xml:space="preserve">
<style type="text/css">
	.st0{fill:#FFFFFF;}
	.st1{fill:#EF4136;}
</style>
<g id="XMLID_1_">
	<path id="XMLID_2_" class="st0" d="M102.3,102.8H31.7c-6.9,0-12.5-5.6-12.5-12.5V25.8c0-6.9,5.6-12.5,12.5-12.5h64.5
		c6.9,0,12.5,5.6,12.5,12.5v70.6C108.8,99.9,105.9,102.8,102.3,102.8z"/>
	<path id="XMLID_3_" class="st0" d="M40.1,114.7L40.1,114.7c-3.3,0-6-2.7-6-6v-6c0-3.3,2.7-6,6-6h0c3.3,0,6,2.7,6,6v6
		C46.1,112,43.4,114.7,40.1,114.7z"/>
	<path id="XMLID_4_" class="st0" d="M90.9,114.7L90.9,114.7c-3.3,0-6-2.7-6-6v-6c0-3.3,2.7-6,6-6h0c3.3,0,6,2.7,6,6v6
		C96.8,112,94.1,114.7,90.9,114.7z"/>
	<circle id="XMLID_5_" class="st1" cx="38.6" cy="83.4" r="4.5"/>
	<circle id="XMLID_7_" class="st1" cx="92.3" cy="83.4" r="4.5"/>
	<rect id="XMLID_8_" x="31.2" y="25.2" class="st1" width="65.6" height="38.8"/>
	<rect id="XMLID_9_" x="10.3" y="25.2" class="st0" width="6" height="23.9"/>
	<rect id="XMLID_10_" x="111.7" y="25.2" class="st0" width="6" height="23.9"/>
</g>
</svg>
