<?xml version="1.0" encoding="utf-8"?>
<!-- Generator: Adobe Illustrator 19.0.0, SVG Export Plug-In . SVG Version: 6.00 Build 0)  -->
<svg version="1.1" id="Layer_1" xmlns="http://www.w3.org/2000/svg" xmlns:xlink="http://www.w3.org/1999/xlink" x="0px" y="0px"
	 viewBox="0 0 64 64" style="enable-background:new 0 0 64 64;" xml:space="preserve">
<style type="text/css">
	.st0{fill:#FFFFFF;}
</style>
<path id="XMLID_1_" class="st0" d="M47.2,19.8H17.9c-1.3,0-2.4-1.1-2.4-2.4v0c0-1.3,1.1-2.4,2.4-2.4h29.3c1.3,0,2.4,1.1,2.4,2.4v0
	C49.6,18.7,48.5,19.8,47.2,19.8z"/>
<path id="XMLID_2_" class="st0" d="M47.2,29.7H17.9c-1.3,0-2.4-1.1-2.4-2.4v0c0-1.3,1.1-2.4,2.4-2.4h29.3c1.3,0,2.4,1.1,2.4,2.4v0
	C49.6,28.7,48.5,29.7,47.2,29.7z"/>
<path id="XMLID_3_" class="st0" d="M47.2,39.9H17.9c-1.3,0-2.4-1.1-2.4-2.4v0c0-1.3,1.1-2.4,2.4-2.4h29.3c1.3,0,2.4,1.1,2.4,2.4v0
	C49.6,38.8,48.5,39.9,47.2,39.9z"/>
</svg>
